<?xml version="1.0" encoding="UTF-8"?>
<svg version="1.1" xmlns="http://www.w3.org/2000/svg" width="604" height="671">
<path d="M0 0 C199.32 0 398.64 0 604 0 C604 221.43 604 442.86 604 671 C404.68 671 205.36 671 0 671 C0 449.57 0 228.14 0 0 Z " fill="#FEFEFE" transform="translate(0,0)"/>
<path d="M0 0 C0.88869278 -0.01102249 1.77738556 -0.02204498 2.69300842 -0.03340149 C5.55983225 -0.06015138 8.42602572 -0.06652585 11.29296875 -0.06640625 C12.27179016 -0.06813843 13.25061157 -0.06987061 14.25909424 -0.07165527 C30.85495536 -0.05876265 46.32669019 1.35795451 62.48046875 5.37109375 C63.24391602 5.55220703 64.00736328 5.73332031 64.79394531 5.91992188 C77.31772874 8.93414063 88.98214858 14.50231574 100.66796875 19.80859375 C102.19067383 20.48631836 102.19067383 20.48631836 103.74414062 21.17773438 C110.09587721 24.06488737 115.7817227 27.36013209 121.48046875 31.37109375 C122.89420354 32.29227568 124.31055179 33.2094699 125.73046875 34.12109375 C153.34850339 52.67621547 175.52511644 77.24561273 191.48046875 106.37109375 C191.86299805 107.05300781 192.24552734 107.73492187 192.63964844 108.4375 C220.14235026 157.8626453 221.01172301 216.33129322 205.83154297 269.65039062 C204.49064482 274.26074262 203.01742835 278.82246611 201.48046875 283.37109375 C201.21621094 284.15967773 200.95195312 284.94826172 200.6796875 285.76074219 C197.41472314 295.4550028 193.95822487 304.97458919 189.81640625 314.33203125 C188.61144356 317.07314521 187.49843264 319.82917506 186.41796875 322.62109375 C184.75211236 326.85140127 182.7594683 330.85075021 180.6875 334.89453125 C179.54839019 337.2317339 178.5902187 339.56655424 177.66796875 341.99609375 C167.23600399 368.58737647 151.58515862 394.17951875 136.48046875 418.37109375 C135.16711855 420.51640683 133.85462615 422.66224527 132.54296875 424.80859375 C118.00390845 448.39230202 102.29049479 471.34519084 85.48046875 493.37109375 C84.6915625 494.41652344 83.90265625 495.46195313 83.08984375 496.5390625 C77.90824639 503.37549411 72.51165191 509.98618965 66.92578125 516.49609375 C64.72517302 519.08339033 62.58655905 521.70664463 60.48046875 524.37109375 C56.39908536 522.75412563 53.67469124 519.82817389 50.66796875 516.74609375 C50.13751953 516.20992432 49.60707031 515.67375488 49.06054688 515.12133789 C45.54406747 511.5399174 42.17776723 507.86391613 38.98046875 503.9921875 C37.30374856 502.18010709 35.46732506 500.82891903 33.48046875 499.37109375 C30.87294655 502.11792868 28.27005136 504.86910612 25.66796875 507.62109375 C24.92998047 508.39839844 24.19199219 509.17570312 23.43164062 509.9765625 C22.71943359 510.73066406 22.00722656 511.48476563 21.2734375 512.26171875 C20.29153442 513.2986084 20.29153442 513.2986084 19.28979492 514.35644531 C17.55725118 516.28559805 16.00097627 518.27242302 14.48046875 520.37109375 C10.5665557 518.84263561 8.71401009 516.46224378 6.16796875 513.18359375 C2.8971187 509.05712398 -0.44594615 505.28967948 -4.3046875 501.7109375 C-5.51953125 500.37109375 -5.51953125 500.37109375 -5.51953125 498.37109375 C-12.46486402 503.91441835 -18.34886726 510.42449022 -24.34765625 516.9453125 C-26.68137567 519.4817549 -29.05436647 521.960846 -31.51953125 524.37109375 C-35.18653462 523.14875929 -36.01519387 521.82092466 -38.39453125 518.80859375 C-39.57789063 517.32359375 -39.57789063 517.32359375 -40.78515625 515.80859375 C-41.43581055 514.98681641 -41.43581055 514.98681641 -42.09960938 514.1484375 C-43.63342098 512.22853576 -45.19091258 510.32980516 -46.75390625 508.43359375 C-51.92843357 502.14788427 -57.04205483 495.88933102 -61.61328125 489.14453125 C-63.64821292 486.18387246 -65.75469789 483.283719 -67.87182617 480.3815918 C-75.4212298 470.0245125 -82.6723925 459.47781109 -89.84033203 448.85400391 C-91.29629376 446.70117884 -92.76241441 444.55595745 -94.234375 442.4140625 C-100.98847425 432.52461101 -107.00466302 422.22378671 -113.04003906 411.88476562 C-114.63521373 409.17454807 -116.27122998 406.49247407 -117.91918945 403.81420898 C-128.77816284 386.09908773 -138.13369999 367.45026932 -147.30419922 348.82080078 C-148.46395285 346.4831214 -149.64461477 344.15766014 -150.8359375 341.8359375 C-154.12955433 335.40360167 -157.20299974 329.03876482 -159.5390625 322.18359375 C-160.70210683 318.84737097 -162.00969646 315.58492982 -163.33203125 312.30859375 C-163.58629883 311.67260254 -163.84056641 311.03661133 -164.10253906 310.38134766 C-165.43764769 307.04192169 -166.79287784 303.71282392 -168.1796875 300.39453125 C-173.79399987 286.73561468 -177.66210485 272.6089478 -181.51953125 258.37109375 C-181.74801758 257.5423877 -181.97650391 256.71368164 -182.21191406 255.85986328 C-183.44026073 251.38775664 -184.5278611 246.90307425 -185.51953125 242.37109375 C-185.81730469 241.08976563 -186.11507812 239.8084375 -186.421875 238.48828125 C-188.73745878 227.34234519 -188.83842129 216.14549724 -188.89453125 204.80859375 C-188.90238647 204.03270905 -188.9102417 203.25682434 -188.91833496 202.45742798 C-189.01001965 190.80470375 -187.74124097 179.79909875 -185.51953125 168.37109375 C-185.26230232 166.99326205 -185.0060069 165.61525569 -184.75073242 164.23706055 C-178.01597686 128.44868258 -161.44913823 94.07140179 -136.51953125 67.37109375 C-135.30578071 65.97996839 -134.09711872 64.5843805 -132.89453125 63.18359375 C-126.39132328 55.75984036 -119.2728491 49.47251777 -111.51953125 43.37109375 C-110.93526367 42.90509766 -110.35099609 42.43910156 -109.74902344 41.95898438 C-100.21518812 34.38990904 -90.39320702 28.08441074 -79.59912109 22.45996094 C-77.72148014 21.4768336 -75.86344585 20.46524085 -74.0078125 19.44140625 C-57.5250225 10.66358909 -39.65379362 6.36253386 -21.41113281 2.94604492 C-19.77257311 2.62024214 -18.13673139 2.27616242 -16.51521301 1.8740387 C-10.94995033 0.51870966 -5.718835 0.03860761 0 0 Z " fill="#26583E" transform="translate(283.51953125,51.62890625)"/>
<path d="M0 0 C27.67730697 22.01222733 46.70744664 55.35751849 50.97680664 90.52270508 C52.65263095 106.73936264 53.00981753 122.75427806 48.75 138.5625 C48.45679384 140.14897936 48.16815501 141.7363062 47.8828125 143.32421875 C46.84022464 148.63406208 45.0705634 153.45087688 43 158.4375 C42.6400293 159.31317627 42.28005859 160.18885254 41.90917969 161.09106445 C40.87152151 163.58842031 39.81586348 166.07707133 38.75 168.5625 C38.275625 169.67238281 37.80125 170.78226563 37.3125 171.92578125 C25.58863337 197.15302999 4.37879593 217.54399063 -19.25 231.5625 C-19.90242676 231.94970215 -20.55485352 232.3369043 -21.22705078 232.73583984 C-29.13390204 237.34737608 -37.08406875 241.14543908 -45.8125 243.9375 C-46.51850342 244.16397217 -47.22450684 244.39044434 -47.9519043 244.6237793 C-61.10288852 248.54827958 -73.92945649 250.06289079 -87.60595703 249.95361328 C-90.01261197 249.93741511 -92.41761157 249.95362976 -94.82421875 249.97265625 C-102.80753486 249.98243126 -110.05615269 249.58731484 -117.7722168 247.27270508 C-120.29309964 246.55014638 -122.71123527 246.17938058 -125.3125 245.875 C-156.01671575 240.54286412 -184.77742333 216.71777745 -203.125 192.625 C-213.31455916 178.12369126 -220.43325506 163.61574034 -225.25 146.5625 C-225.57653564 145.42989746 -225.57653564 145.42989746 -225.90966797 144.27441406 C-228.33228014 135.75218154 -229.98447191 127.44747828 -230.25 118.5625 C-230.28641602 117.86157227 -230.32283203 117.16064453 -230.36035156 116.43847656 C-231.36578246 96.22002163 -228.31547494 75.22063202 -220.25 56.5625 C-219.79367188 55.40621094 -219.79367188 55.40621094 -219.328125 54.2265625 C-205.53887525 20.72110477 -177.07996147 -6.63067875 -144.25146484 -21.33251953 C-139.34906823 -23.37167591 -134.34909353 -24.96918015 -129.25 -26.4375 C-128.42741699 -26.68016602 -127.60483398 -26.92283203 -126.75732422 -27.17285156 C-82.12879834 -39.87127748 -36.00066169 -27.9450487 0 0 Z " fill="#FCFDFC" transform="translate(386.25,144.4375)"/>
<path d="M0 0 C1.26317047 -0.0071553 2.52634094 -0.01431061 3.82778931 -0.02168274 C5.23564123 -0.02452316 6.64349343 -0.02723487 8.05134583 -0.02983093 C9.52795065 -0.03609465 11.00455389 -0.04274137 12.4811554 -0.04974365 C16.49996835 -0.0671644 20.5187694 -0.07770882 24.53761077 -0.08594918 C27.04864887 -0.09109819 29.55968327 -0.09717404 32.07071877 -0.10346031 C39.92759116 -0.12251736 47.78445413 -0.13674611 55.6413452 -0.14507228 C64.70959665 -0.1548407 73.77760375 -0.18114762 82.84576911 -0.22157317 C89.85478013 -0.25174602 96.86372117 -0.26654235 103.87279588 -0.26985329 C108.05880301 -0.2722029 112.24454925 -0.28115108 116.43048668 -0.30631447 C120.37120679 -0.32962014 124.31149473 -0.3338186 128.25226593 -0.32355309 C129.69580588 -0.32305818 131.13936727 -0.3293654 132.58284187 -0.34310913 C146.15519601 -0.46506568 146.15519601 -0.46506568 152.0740509 4.14717102 C156.34422229 8.7544612 157.19783295 12.0228408 157.2144928 18.20010376 C157.22020294 19.46609406 157.22591309 20.73208435 157.23179626 22.03643799 C157.23304161 23.44224539 157.23416671 24.84805289 157.23518372 26.25386047 C157.23981231 27.73223494 157.24483703 29.21060822 157.25022888 30.6889801 C157.26335107 34.70767174 157.26979751 38.72634667 157.27423954 42.74505639 C157.27717062 45.25592476 157.2812755 47.76678857 157.28574371 50.27765465 C157.2994183 58.13399049 157.30908509 65.9903159 157.3129456 73.84666282 C157.31742611 82.91486965 157.3349738 91.98292573 157.3639462 101.05108672 C157.38556479 108.06095257 157.39564998 115.070776 157.39698672 122.08067483 C157.39803465 126.26714286 157.40393965 130.45346918 157.42180634 134.63990211 C157.43829009 138.57893911 157.44044113 142.51772791 157.43166733 146.45678711 C157.43089711 147.90074008 157.43523776 149.3447064 157.44512558 150.78862572 C157.45785362 152.76347227 157.45017346 154.73841864 157.44154358 156.71328735 C157.44301014 157.81738606 157.4444767 158.92148478 157.4459877 160.05904102 C156.93674273 164.28721815 155.45701328 167.66567698 152.53889465 170.79170227 C147.9335343 174.31344842 145.90042475 175.27214089 140.13464355 175.28088379 C138.86858276 175.28514877 137.60252197 175.28941376 136.2980957 175.29380798 C134.88706967 175.29345844 133.47604366 175.29299689 132.0650177 175.29243469 C130.58516861 175.29542551 129.1053203 175.29882786 127.62547302 175.3026123 C123.5985205 175.31146564 119.57158922 175.31379101 115.5446279 175.31442809 C112.18483276 175.31537643 108.82504259 175.31905396 105.46524936 175.32260019 C97.5380537 175.33075026 89.61086941 175.33318397 81.68367004 175.33247375 C73.5039641 175.33187321 65.32432415 175.34241917 57.1446349 175.35821742 C50.12546309 175.37129162 43.10631284 175.37665768 36.08712894 175.37601835 C31.89344739 175.37576327 27.69982444 175.37861965 23.50615501 175.3891964 C19.56060665 175.39887504 15.61517291 175.39895818 11.66962051 175.39167976 C10.2220283 175.39063354 8.77442897 175.39299905 7.32684898 175.39904022 C5.34938351 175.40675762 3.37187901 175.4009171 1.39440918 175.39440918 C-0.2650698 175.39522633 -0.2650698 175.39522633 -1.95807362 175.39605999 C-6.8142956 174.98881242 -9.24163987 173.86330859 -12.6134491 170.33467102 C-16.15645173 165.4510728 -17.17506888 161.8676841 -17.19337463 155.85372925 C-17.2019046 154.58498962 -17.21043457 153.31625 -17.21922302 152.00906372 C-17.21852406 150.61051928 -17.21760104 149.21197495 -17.21647644 147.81343079 C-17.22246336 146.33475913 -17.22926929 144.85609059 -17.23683167 143.37742615 C-17.25448021 139.36709992 -17.2591865 135.35685908 -17.26046324 131.34649777 C-17.26188581 128.83996714 -17.26615736 126.33345816 -17.27145767 123.82693291 C-17.28995269 115.07974242 -17.29812876 106.33261284 -17.29655457 97.58540344 C-17.29535263 89.43567781 -17.31646637 81.28621678 -17.34804189 73.13655812 C-17.37420064 66.13513493 -17.38492206 59.13379822 -17.38364375 52.13232654 C-17.38313408 47.95255948 -17.38881985 43.77302773 -17.40999985 39.5933094 C-17.42937615 35.66238109 -17.4295112 31.73191278 -17.41496658 27.80096817 C-17.41287675 26.36023855 -17.4175899 24.91948017 -17.4296875 23.47879982 C-17.44515834 21.50845701 -17.43342466 19.5379571 -17.42042542 17.56759644 C-17.42151495 16.46609536 -17.42260448 15.36459429 -17.42372704 14.22971439 C-16.61592711 9.22732654 -14.03559211 6.12471367 -10.3009491 2.83467102 C-6.56961535 0.1834602 -4.56486908 0.01769277 0 0 Z " fill="#CC9B30" transform="translate(226.9259490966797,163.8528289794922)"/>
<path d="M0 0 C7.92 0 15.84 0 24 0 C24 12.87 24 25.74 24 39 C48.42 39 72.84 39 98 39 C98 41.97 98 44.94 98 48 C73.58 48 49.16 48 24 48 C24 57.24 24 66.48 24 76 C19 75 19 75 16.5625 73.375 C13.17938646 71.55967079 11.6512225 71.95679357 8 73 C5.98473831 73.96887581 3.98166034 74.9641321 2 76 C1.34 76 0.68 76 0 76 C0 66.76 0 57.52 0 48 C-24.42 48 -48.84 48 -74 48 C-74 45.03 -74 42.06 -74 39 C-49.58 39 -25.16 39 0 39 C0 26.13 0 13.26 0 0 Z " fill="#265739" transform="translate(285,165)"/>
<path d="M0 0 C1.26317047 -0.0071553 2.52634094 -0.01431061 3.82778931 -0.02168274 C5.23564123 -0.02452316 6.64349343 -0.02723487 8.05134583 -0.02983093 C9.52795065 -0.03609465 11.00455389 -0.04274137 12.4811554 -0.04974365 C16.49996835 -0.0671644 20.5187694 -0.07770882 24.53761077 -0.08594918 C27.04864887 -0.09109819 29.55968327 -0.09717404 32.07071877 -0.10346031 C39.92759116 -0.12251736 47.78445413 -0.13674611 55.6413452 -0.14507228 C64.70959665 -0.1548407 73.77760375 -0.18114762 82.84576911 -0.22157317 C89.85478013 -0.25174602 96.86372117 -0.26654235 103.87279588 -0.26985329 C108.05880301 -0.2722029 112.24454925 -0.28115108 116.43048668 -0.30631447 C120.37120679 -0.32962014 124.31149473 -0.3338186 128.25226593 -0.32355309 C129.69580588 -0.32305818 131.13936727 -0.3293654 132.58284187 -0.34310913 C146.15519601 -0.46506568 146.15519601 -0.46506568 152.0740509 4.14717102 C156.36086561 8.77241847 157.1994516 12.03933659 157.19430542 18.24047852 C157.19636742 20.1524704 157.19636742 20.1524704 157.19847107 22.10308838 C157.19493191 23.51841759 157.1912971 24.93374657 157.18757629 26.34907532 C157.18729427 27.83718362 157.18745246 29.32529205 157.1880188 30.81340027 C157.18830617 34.85649425 157.18241914 38.89955868 157.17544484 42.94264579 C157.16920131 47.16672857 157.16860671 51.390812 157.16741943 55.61489868 C157.16430908 63.61527233 157.15609965 71.61563235 157.14606994 79.616 C157.13489966 88.72351231 157.12939604 97.83102527 157.12437451 106.93854272 C157.11391681 125.67475989 157.09632306 144.41096436 157.0740509 163.14717102 C156.7440509 163.14717102 156.4140509 163.14717102 156.0740509 163.14717102 C156.0740509 122.55717102 156.0740509 81.96717102 156.0740509 40.14717102 C131.6540509 40.14717102 107.2340509 40.14717102 82.0740509 40.14717102 C82.0740509 27.27717102 82.0740509 14.40717102 82.0740509 1.14717102 C74.1540509 1.14717102 66.2340509 1.14717102 58.0740509 1.14717102 C58.0740509 14.01717102 58.0740509 26.88717102 58.0740509 40.14717102 C33.6540509 40.14717102 9.2340509 40.14717102 -15.9259491 40.14717102 C-15.9259491 80.40717102 -15.9259491 120.66717102 -15.9259491 162.14717102 C-16.2559491 162.14717102 -16.5859491 162.14717102 -16.9259491 162.14717102 C-17.01940353 142.56288398 -17.08993374 122.9786422 -17.13319778 103.39417839 C-17.15382026 94.30069905 -17.18193483 85.20735829 -17.22770691 76.1139679 C-17.26758432 68.18787039 -17.2933842 60.26187325 -17.30230308 52.33567822 C-17.30751631 48.13903766 -17.31976261 43.94268422 -17.34886932 39.74613571 C-17.37605284 35.7947954 -17.38438825 31.84386002 -17.37837982 27.89243507 C-17.37947876 26.44363135 -17.38741548 24.99481385 -17.402771 23.54609108 C-17.42274062 21.56457487 -17.41548785 19.58284058 -17.40696716 17.60124207 C-17.41065434 16.4932469 -17.41434151 15.38525173 -17.41814041 14.24368095 C-16.62108124 9.22916408 -14.04267223 6.13095092 -10.3009491 2.83467102 C-6.56961535 0.1834602 -4.56486908 0.01769277 0 0 Z M3.5115509 2.39717102 C2.51002991 2.41127014 1.50850891 2.42536926 0.47663879 2.43989563 C-4.96381587 2.63138359 -7.95227214 3.08959686 -11.9259491 7.14717102 C-12.9159491 7.80717102 -13.9059491 8.46717102 -14.9259491 9.14717102 C-14.9259491 18.71717102 -14.9259491 28.28717102 -14.9259491 38.14717102 C8.5040509 38.14717102 31.9340509 38.14717102 56.0740509 38.14717102 C56.0740509 26.26717102 56.0740509 14.38717102 56.0740509 2.14717102 C29.79136584 2.00044296 29.79136584 2.00044296 3.5115509 2.39717102 Z M84.0740509 3.14717102 C84.0740509 14.69717102 84.0740509 26.24717102 84.0740509 38.14717102 C107.5040509 38.14717102 130.9340509 38.14717102 155.0740509 38.14717102 C154.7440509 28.57717102 154.4140509 19.00717102 154.0740509 9.14717102 C153.4140509 9.14717102 152.7540509 9.14717102 152.0740509 9.14717102 C152.0740509 8.15717102 152.0740509 7.16717102 152.0740509 6.14717102 C151.4140509 6.14717102 150.7540509 6.14717102 150.0740509 6.14717102 C150.0740509 5.48717102 150.0740509 4.82717102 150.0740509 4.14717102 C146.23659842 2.36560707 143.2317123 1.89853729 139.01448059 1.9042511 C137.21802094 1.89963615 137.21802094 1.89963615 135.38526917 1.89492798 C134.10178589 1.90211349 132.81830261 1.90929901 131.4959259 1.91670227 C130.16025334 1.91789519 128.82457993 1.918347 127.48890686 1.91809082 C124.69822391 1.91965082 121.90767013 1.92790675 119.11701965 1.94136047 C115.53338047 1.9584157 111.94988215 1.96217268 108.36620712 1.96141529 C104.95109436 1.96175169 101.53602823 1.97058117 98.1209259 1.97920227 C96.8293457 1.98031509 95.5377655 1.98142792 94.20704651 1.98257446 C93.02201538 1.98895432 91.83698425 1.99533417 90.61604309 2.00190735 C89.56745117 2.00571915 88.51885925 2.00953094 87.43849182 2.01345825 C85.11782189 1.88138183 85.11782189 1.88138183 84.0740509 3.14717102 Z " fill="#C6B472" transform="translate(226.9259490966797,163.8528289794922)"/>
<path d="M0 0 C20.13 0 40.26 0 61 0 C57.03512824 4.62568372 53.10903833 9.08372461 48.8125 13.375 C48.25731689 13.93082764 47.70213379 14.48665527 47.13012695 15.05932617 C42.04212101 20.08363251 36.65233909 24.61632219 31 29 C22.25414565 25.05025933 15.17356175 17.3660779 8.4375 10.6875 C7.82986816 10.08905273 7.22223633 9.49060547 6.59619141 8.87402344 C6.02690918 8.30071289 5.45762695 7.72740234 4.87109375 7.13671875 C4.36505615 6.62842529 3.85901855 6.12013184 3.33764648 5.59643555 C2 4 2 4 0 0 Z " fill="#26553C" transform="translate(267,594)"/>
<path d="M0 0 C6 2 6 2 8.5625 3.75 C10.93924511 5.3067142 10.93924511 5.3067142 13.5 4.375 C15.23446552 3.42104396 16.94190389 2.41691664 18.625 1.375 C21 0 21 0 24 0 C24 11.22 24 22.44 24 34 C16.08 34 8.16 34 0 34 C0 22.78 0 11.56 0 0 Z " fill="#2B583B" transform="translate(285,305)"/>
<path d="M0 0 C16.23069818 -0.20054405 16.23069818 -0.20054405 23.16796875 -0.24414062 C27.89530621 -0.27399024 32.62215785 -0.3092389 37.34912109 -0.37719727 C41.16170944 -0.43166468 44.9737766 -0.46145105 48.78672409 -0.47438622 C50.23879574 -0.48359995 51.69083998 -0.50159289 53.14268875 -0.52865028 C65.94298832 -0.75763979 65.94298832 -0.75763979 69.75146484 2.15551758 C73.68454604 7.13101475 75.37663345 11.09553128 75.36076355 17.45407104 C75.36488754 18.73285629 75.36901154 20.01164154 75.3732605 21.32917786 C75.36264512 22.7336142 75.35174072 24.13804838 75.34057617 25.54248047 C75.33972936 27.03103112 75.3402061 28.51958301 75.34190369 30.00813293 C75.34276296 34.03875124 75.32514837 38.06910066 75.30418181 42.09965658 C75.28540358 46.31570153 75.28366367 50.53175293 75.28010559 54.74783325 C75.27078849 62.72691019 75.24617926 70.70586354 75.21605712 78.6848861 C75.18250268 87.7706874 75.16602448 96.85649466 75.15097082 105.94234252 C75.11962939 124.62829837 75.06687542 143.31413924 75 162 C74.67 162 74.34 162 74 162 C74 121.41 74 80.82 74 39 C49.58 39 25.16 39 0 39 C0 26.13 0 13.26 0 0 Z M2 2 C2 13.55 2 25.1 2 37 C25.43 37 48.86 37 73 37 C72.67 27.43 72.34 17.86 72 8 C71.34 8 70.68 8 70 8 C70 7.01 70 6.02 70 5 C69.34 5 68.68 5 68 5 C68 4.34 68 3.68 68 3 C64.16254752 1.21843605 61.15766139 0.75136627 56.94042969 0.75708008 C55.14397003 0.75246513 55.14397003 0.75246513 53.31121826 0.74775696 C52.02773499 0.75494247 50.74425171 0.76212799 49.421875 0.76953125 C48.08620244 0.77072417 46.75052903 0.77117598 45.41485596 0.7709198 C42.62417301 0.7724798 39.83361923 0.78073572 37.04296875 0.79418945 C33.45932957 0.81124468 29.87583124 0.81500166 26.29215622 0.81424427 C22.87704346 0.81458067 19.46197733 0.82341015 16.046875 0.83203125 C14.7552948 0.83314407 13.4637146 0.8342569 12.13299561 0.83540344 C10.94796448 0.84178329 9.76293335 0.84816315 8.54199219 0.85473633 C7.49340027 0.85854813 6.44480835 0.86235992 5.36444092 0.86628723 C3.04377099 0.73421081 3.04377099 0.73421081 2 2 Z " fill="#BDA75F" transform="translate(309,165)"/>
<path d="M0 0 C0.99 0.495 0.99 0.495 2 1 C2.02464775 6.53588533 2.04283496 12.071739 2.05493164 17.60766602 C2.05997244 19.4924373 2.06680498 21.37720465 2.07543945 23.26196289 C2.08751617 25.96501636 2.09323068 28.66801831 2.09765625 31.37109375 C2.10281754 32.21900986 2.10797882 33.06692596 2.11329651 33.9405365 C2.11349195 35.96071068 2.06206211 37.98077934 2 40 C1 41 1 41 -1.92958069 41.12025452 C-3.24196213 41.11803391 -4.55434357 41.11581329 -5.90649414 41.11352539 C-6.62840439 41.11367142 -7.35031464 41.11381744 -8.09410095 41.1139679 C-10.49114947 41.11326869 -12.88812123 41.10547595 -15.28515625 41.09765625 C-16.94282489 41.0957921 -18.60049407 41.09436818 -20.25816345 41.09336853 C-24.62954214 41.08954312 -29.00088781 41.07971265 -33.37225342 41.06866455 C-37.82954461 41.05845092 -42.28684111 41.05387101 -46.74414062 41.04882812 C-55.49610893 41.0380904 -64.24805036 41.02101371 -73 41 C-73 42.65 -73 44.3 -73 46 C-72.07514297 45.99777939 -71.15028595 45.99555878 -70.19740295 45.99327087 C-61.50047413 45.97327087 -52.80355298 45.95802736 -44.10660648 45.94818783 C-39.63494451 45.94295926 -35.16330147 45.93586211 -30.69165039 45.92456055 C-26.37988027 45.91373071 -22.06812841 45.90772296 -17.75634575 45.90512276 C-16.10763702 45.90326868 -14.45892934 45.8996484 -12.81022835 45.89426994 C-10.50896128 45.88705822 -8.2077706 45.88600911 -5.90649414 45.88647461 C-3.93792198 45.88314369 -3.93792198 45.88314369 -1.92958069 45.87974548 C1 46 1 46 2 47 C2.08737645 48.85369611 2.10698153 50.71067541 2.09765625 52.56640625 C2.09282227 54.2534668 2.09282227 54.2534668 2.08789062 55.97460938 C2.07532227 57.75061523 2.07532227 57.75061523 2.0625 59.5625 C2.05798828 60.75037109 2.05347656 61.93824219 2.04882812 63.16210938 C2.03699675 66.10812226 2.02051287 69.05403681 2 72 C2.54342041 71.78126221 3.08684082 71.56252441 3.64672852 71.3371582 C4.36272217 71.05702881 5.07871582 70.77689941 5.81640625 70.48828125 C6.52482666 70.20766846 7.23324707 69.92705566 7.96313477 69.63793945 C10.6346628 68.80122571 12.40659974 68.97835748 15 70 C15.33 70.66 15.66 71.32 16 72 C15.175 71.9175 14.35 71.835 13.5 71.75 C9.51318958 72.03477217 7.17057565 73.20712057 3.734375 75.125 C2 76 2 76 0 76 C0 66.76 0 57.52 0 48 C-24.42 48 -48.84 48 -74 48 C-74 45.03 -74 42.06 -74 39 C-49.58 39 -25.16 39 0 39 C0 26.13 0 13.26 0 0 Z " fill="#4A5E2B" transform="translate(285,165)"/>
<path d="M0 0 C24.42 0 48.84 0 74 0 C74 2.97 74 5.94 74 9 C49.58 9 25.16 9 0 9 C0 8.34 0 7.68 0 7 C24.32536476 5.72293533 48.64965821 5.89815506 73 6 C73 4.68 73 3.36 73 2 C49.24 2 25.48 2 1 2 C0.67 1.34 0.34 0.68 0 0 Z " fill="#445B2C" transform="translate(309,204)"/>
<path d="M0 0 C24.42 0 48.84 0 74 0 C74 9.24 74 18.48 74 28 C75.98 27.01 77.96 26.02 80 25 C80.66 25 81.32 25 82 25 C81.505 26.485 81.505 26.485 81 28 C80.34 28 79.68 28 79 28 C79 28.66 79 29.32 79 30 C76.69 29.67 74.38 29.34 72 29 C72 19.76 72 10.52 72 1 C48.57 1 25.14 1 1 1 C1 38.62 1 76.24 1 115 C1.66 115 2.32 115 3 115 C3 116.32 3 117.64 3 119 C3.66 119 4.32 119 5 119 C4.67 119.99 4.34 120.98 4 122 C-0.7223357 116.51053875 -0.54937471 111.71341752 -0.45410156 104.67041016 C-0.45468567 103.53811981 -0.45526978 102.40582947 -0.45587158 101.23922729 C-0.45309019 97.50552462 -0.42199378 93.77262532 -0.390625 90.0390625 C-0.38316285 87.44689368 -0.3774698 84.85471921 -0.37347412 82.26254272 C-0.35977451 76.14271184 -0.32826587 70.02321131 -0.28807616 63.90350473 C-0.23890612 56.24952713 -0.21706852 48.59550247 -0.1953125 40.94140625 C-0.15640092 27.29404731 -0.07626565 13.64731479 0 0 Z " fill="#B59A48" transform="translate(211,213)"/>
<path d="M0 0 C24.42 0 48.84 0 74 0 C74.12049101 28.78842498 74.12049101 28.78842498 74.1507616 42.99805164 C74.16739234 50.68617617 74.18851335 58.37420316 74.22631836 66.06225586 C74.25942972 72.79901847 74.27684641 79.53565369 74.28463173 86.27250099 C74.29018092 88.84455846 74.30101692 91.41661006 74.31719017 93.98862267 C74.33892153 97.58718799 74.34196865 101.18531531 74.34057617 104.78393555 C74.351362 105.85064484 74.36214783 106.91735413 74.3732605 108.01638794 C74.33511902 117.10705215 74.33511902 117.10705215 71 121 C70.67 121 70.34 121 70 121 C70 119.35 70 117.7 70 116 C70.99 115.67 71.98 115.34 73 115 C73 77.38 73 39.76 73 1 C49.24 1 25.48 1 1 1 C1 10.24 1 19.48 1 29 C-6.17283951 27.97530864 -6.17283951 27.97530864 -10 26 C-11.99110401 25.61709538 -13.99100513 25.27395385 -16 25 C-15.34 24.34 -14.68 23.68 -14 23 C-8.32125804 23.27041628 -5.45432337 25.27283832 0 28 C0 18.76 0 9.52 0 0 Z " fill="#A99949" transform="translate(309,213)"/>
<path d="M0 0 C0.66 0 1.32 0 2 0 C1.83775783 0.5328168 1.67551565 1.0656336 1.50835705 1.61459637 C0.88993757 4.51645457 0.8708071 7.19766714 0.86628723 10.16645813 C0.85988976 12.06533783 0.85988976 12.06533783 0.85336304 14.00257874 C0.85371254 15.40316776 0.85417407 16.80375675 0.85473633 18.2043457 C0.85174371 19.68124476 0.84834095 21.15814304 0.84455872 22.63504028 C0.83572416 26.64548029 0.83338081 30.65589895 0.83274293 34.66634774 C0.83203203 37.17304153 0.82989693 39.6797299 0.82724571 42.18642235 C0.81799355 50.93475056 0.8139106 59.68306354 0.81469727 68.43139648 C0.81529778 76.58043046 0.8047508 84.72939819 0.7889536 92.87841541 C0.77586735 99.87897532 0.77051384 106.8795136 0.77115268 113.88008565 C0.77140738 118.05926955 0.76857162 122.2383946 0.75797462 126.4175663 C0.74827559 130.35001506 0.74822682 134.28234892 0.75549126 138.21480179 C0.75653491 139.6551054 0.75418725 141.09541622 0.7481308 142.53570747 C0.74037698 144.50798733 0.74627027 146.48030653 0.75276184 148.45259094 C0.75221707 149.55446904 0.75167231 150.65634714 0.75111103 151.79161549 C1.0360632 155.46488448 1.88395623 158.49640764 3 162 C0 161 0 161 -1.17162704 159.32891083 C-2.22746923 156.36048665 -2.2518433 153.89049823 -2.25396729 150.73742676 C-2.25960693 149.45034317 -2.26524658 148.16325958 -2.27105713 146.83717346 C-2.26716862 145.41293279 -2.26307228 143.98869267 -2.25878906 142.56445312 C-2.26149943 141.06298147 -2.26506062 139.56151114 -2.26940918 138.06004333 C-2.27853004 133.98366221 -2.27499018 129.90738228 -2.26865101 125.83099937 C-2.26358946 121.56608176 -2.26828289 117.30117284 -2.27142334 113.03625488 C-2.27506253 105.87392622 -2.27026512 98.7116388 -2.26074219 91.54931641 C-2.24985772 83.26729607 -2.25338333 74.98537421 -2.264395 66.70335627 C-2.27346921 59.59413386 -2.27475249 52.48494111 -2.26951766 45.37571478 C-2.2663987 41.12900522 -2.2659866 36.88234196 -2.27259064 32.63563538 C-2.27836541 28.64326935 -2.2743648 24.65103035 -2.26280212 20.65867805 C-2.26015624 19.19292982 -2.26091941 17.72717092 -2.26532745 16.26142693 C-2.27078687 14.2618129 -2.262729 12.26217553 -2.25396729 10.26257324 C-2.25321323 9.14318108 -2.25245918 8.02378891 -2.25168228 6.87047577 C-2.00425 4.04847191 -1.46433086 2.39349866 0 0 Z " fill="#FCF8DE" transform="translate(210,171)"/>
<path d="M0 0 C0.99 0 1.98 0 3 0 C3 10.89 3 21.78 3 33 C11.13773246 32.89047153 19.27536508 32.78006595 27.41294861 32.66095734 C31.20251659 32.6057493 34.99209131 32.55220336 38.78173828 32.50268555 C42.4322343 32.45492178 46.08263853 32.40257493 49.7330246 32.34705925 C51.12523867 32.32669004 52.51747786 32.30796813 53.90973663 32.29092598 C55.86078188 32.26676164 57.81174445 32.2361803 59.76269531 32.20532227 C60.8730011 32.18977798 61.98330688 32.1742337 63.1272583 32.15821838 C65.58493869 32.02285981 67.65472882 31.70957766 70 31 C67.46469447 33.65054669 66.11716416 34.94968758 62.32980347 35.12025452 C61.19729156 35.11803391 60.06477966 35.11581329 58.89794922 35.11352539 C57.61677216 35.11344986 56.33559509 35.11337433 55.01559448 35.11329651 C53.61195843 35.10818948 52.20832277 35.10297348 50.8046875 35.09765625 C49.37265065 35.09579146 47.94061316 35.09436784 46.50857544 35.09336853 C42.73726646 35.08954819 38.96599593 35.07972202 35.19470215 35.06866455 C30.67094212 35.05664277 26.14716925 35.05204589 21.62339783 35.04621124 C14.74890514 35.03651001 7.87449682 35.0173501 1 35 C0.505 17.675 0.505 17.675 0 0 Z " fill="#BDA456" transform="translate(308,304)"/>
<path d="M0 0 C0.33 0 0.66 0 1 0 C1.33 11.55 1.66 23.1 2 35 C-6.12052599 35.04196654 -14.24065809 35.08203428 -22.36119843 35.10350037 C-26.14294587 35.11405129 -29.92460332 35.12814572 -33.70629883 35.15087891 C-37.35025738 35.17264644 -40.99412879 35.18457686 -44.63814735 35.18975449 C-46.02678104 35.19344323 -47.41541009 35.20064646 -48.80400658 35.21146011 C-50.75234684 35.22602615 -52.70077522 35.22681736 -54.64916992 35.22705078 C-55.7572551 35.231492 -56.86534027 35.23593323 -58.00700378 35.24050903 C-61.08855059 34.99288432 -63.25634881 34.40732876 -66 33 C-66.33 32.34 -66.66 31.68 -67 31 C-66.30409256 31.16076523 -65.60818512 31.32153046 -64.89118958 31.48716736 C-61.79264273 32.03678056 -58.88732623 32.16046582 -55.7409668 32.20532227 C-54.50005783 32.22526749 -53.25914886 32.24521271 -51.9806366 32.26576233 C-50.63683189 32.28274257 -49.29302591 32.29962152 -47.94921875 32.31640625 C-46.56630357 32.33699526 -45.1833944 32.35799223 -43.80049133 32.37937927 C-40.17232151 32.43439899 -36.54409679 32.4838963 -32.91583252 32.53222656 C-29.20881308 32.58258898 -25.50187173 32.63814741 -21.79492188 32.69335938 C-14.53000829 32.80118363 -7.26504895 32.90036262 0 33 C0 22.11 0 11.22 0 0 Z " fill="#C5A859" transform="translate(283,304)"/>
<path d="M0 0 C9.63112712 -0.02312465 19.26224474 -0.04091571 28.89339352 -0.05181217 C33.36505549 -0.05704074 37.83669853 -0.06413789 42.30834961 -0.07543945 C46.62011973 -0.08626929 50.93187159 -0.09227704 55.24365425 -0.09487724 C56.89236298 -0.09673132 58.54107066 -0.1003516 60.18977165 -0.10573006 C62.49103872 -0.11294178 64.7922294 -0.11399089 67.09350586 -0.11352539 C69.06207802 -0.11685631 69.06207802 -0.11685631 71.07041931 -0.12025452 C74 0 74 0 75 1 C75.08737645 2.85369611 75.10698153 4.71067541 75.09765625 6.56640625 C75.09282227 8.2534668 75.09282227 8.2534668 75.08789062 9.97460938 C75.07532227 11.75061523 75.07532227 11.75061523 75.0625 13.5625 C75.05798828 14.75037109 75.05347656 15.93824219 75.04882812 17.16210938 C75.03699675 20.10812226 75.02051287 23.05403681 75 26 C75.54342041 25.78126221 76.08684082 25.56252441 76.64672852 25.3371582 C77.36272217 25.05702881 78.07871582 24.77689941 78.81640625 24.48828125 C79.87903687 24.06736206 79.87903687 24.06736206 80.96313477 23.63793945 C83.6346628 22.80122571 85.40659974 22.97835748 88 24 C88.495 24.99 88.495 24.99 89 26 C88.175 25.9175 87.35 25.835 86.5 25.75 C82.51318958 26.03477217 80.17057565 27.20712057 76.734375 29.125 C75 30 75 30 73 30 C73 20.43 73 10.86 73 1 C48.91 1 24.82 1 0 1 C0 0.67 0 0.34 0 0 Z " fill="#365224" transform="translate(212,211)"/>
<path d="M0 0 C0.33 0 0.66 0 1 0 C1.0701044 14.77736382 1.12299516 29.5547056 1.15543652 44.33220196 C1.17090049 51.19377389 1.19198091 58.05524246 1.22631836 64.91674805 C1.2594316 71.53678469 1.27684682 78.15674206 1.28463173 84.77686501 C1.29018059 87.30426538 1.30101595 89.8316598 1.31719017 92.35901451 C1.33892401 95.89531603 1.34196855 99.43117188 1.34057617 102.9675293 C1.35675491 104.53954102 1.35675491 104.53954102 1.3732605 106.14331055 C1.33510235 115.08224119 1.33510235 115.08224119 -2 119 C-2.33 119 -2.66 119 -3 119 C-3 117.35 -3 115.7 -3 114 C-1.515 113.505 -1.515 113.505 0 113 C0 75.71 0 38.42 0 0 Z " fill="#B79442" transform="translate(382,215)"/>
<path d="M0 0 C6.27 0 12.54 0 19 0 C19 4.29 19 8.58 19 13 C12.33794797 9.37931955 5.3857279 5.3857279 0 0 Z " fill="#949493" transform="translate(585,0)"/>
<path d="M0 0 C2.9854008 0.00546777 5.9706578 -0.00004116 8.95605469 -0.00634766 C10.86490918 -0.00568852 12.77376359 -0.00441079 14.68261719 -0.00244141 C15.56997559 -0.00446564 16.45733398 -0.00648987 17.37158203 -0.00857544 C18.19094238 -0.00542328 19.01030273 -0.00227112 19.85449219 0.00097656 C20.57217773 0.00177216 21.28986328 0.00256775 22.02929688 0.00338745 C23.93261719 0.13037109 23.93261719 0.13037109 26.93261719 1.13037109 C26.93261719 1.79037109 26.93261719 2.45037109 26.93261719 3.13037109 C28.25261719 3.46037109 29.57261719 3.79037109 30.93261719 4.13037109 C30.60261719 5.12037109 30.27261719 6.11037109 29.93261719 7.13037109 C28.64085571 6.15922363 28.64085571 6.15922363 27.32299805 5.16845703 C21.57177885 1.90679955 15.11277494 2.5249933 8.68652344 2.52099609 C7.3064532 2.50599724 5.9264008 2.48926652 4.54637146 2.47088623 C0.9346123 2.42739073 -2.67690481 2.4072537 -6.28887939 2.39215088 C-9.98276986 2.37251497 -13.67640135 2.33055257 -17.37011719 2.29052734 C-24.60246913 2.21541858 -31.83471172 2.16501083 -39.06738281 2.13037109 C-39.06738281 1.80037109 -39.06738281 1.47037109 -39.06738281 1.13037109 C-26.03635309 0.29597465 -13.05703321 -0.02854716 0 0 Z " fill="#FDFAE0" transform="translate(349.0673828125,161.86962890625)"/>
<path d="M0 0 C1.30097122 0.00030212 2.60194244 0.00060425 3.94233704 0.00091553 C5.35243346 0.02133915 6.76252356 0.04220309 8.17260742 0.06347656 C9.62276935 0.07094236 11.07294141 0.07663369 12.52311707 0.08062744 C16.32917419 0.09585744 20.13461507 0.1351154 23.94042969 0.17944336 C27.82828435 0.22045363 31.71623916 0.23865067 35.60424805 0.25878906 C43.22497087 0.30161319 50.84518698 0.36983133 58.46557617 0.45410156 C58.46557617 2.10410156 58.46557617 3.75410156 58.46557617 5.45410156 C57.97057617 3.47410156 57.97057617 3.47410156 57.46557617 1.45410156 C36.01557617 2.11410156 14.56557617 2.77410156 -7.53442383 3.45410156 C-7.86442383 4.44410156 -8.19442383 5.43410156 -8.53442383 6.45410156 C-11.09692383 7.64160156 -11.09692383 7.64160156 -13.53442383 8.45410156 C-11.00681304 2.02018319 -6.66204495 -0.05174404 0 0 Z " fill="#C09D45" transform="translate(225.534423828125,164.5458984375)"/>
<path d="M0 0 C0.64461182 -0.00058411 1.28922363 -0.00116821 1.95336914 -0.00177002 C4.06404265 0.00099581 6.17326759 0.03201181 8.28369141 0.06347656 C9.75484445 0.07094441 11.22600749 0.07663477 12.69717407 0.08062744 C16.55417737 0.09584129 20.41057045 0.13508518 24.26733398 0.17944336 C28.20890042 0.22048864 32.15056624 0.23865811 36.09228516 0.25878906 C43.81521848 0.30158466 51.53765042 0.36978302 59.26025391 0.45410156 C59.26025391 0.78410156 59.26025391 1.11410156 59.26025391 1.45410156 C58.0775441 1.45957001 58.0775441 1.45957001 56.87094116 1.46514893 C49.42616641 1.50307674 41.98188944 1.559983 34.53743553 1.6380043 C30.71048691 1.67744855 26.88376732 1.70965167 23.05664062 1.72509766 C19.36051212 1.74028486 15.66501339 1.7747656 11.9691658 1.82241058 C10.56189078 1.83720338 9.15452583 1.84514138 7.74717331 1.84598541 C5.7701436 1.84836277 3.79320315 1.87777102 1.81640625 1.90820312 C0.13096207 1.92152679 0.13096207 1.92152679 -1.58853149 1.93511963 C-5.46427877 2.57342678 -7.62552975 4.10994561 -10.73974609 6.45410156 C-11.72974609 7.11410156 -12.71974609 7.77410156 -13.73974609 8.45410156 C-13.61474609 6.70410156 -13.61474609 6.70410156 -12.73974609 4.45410156 C-8.40595139 0.97804596 -5.52111523 -0.0423074 0 0 Z " fill="#FEFADA" transform="translate(225.73974609375,162.5458984375)"/>
<path d="M0 0 C6 2 6 2 8.5625 3.75 C10.95250617 5.32008364 10.95250617 5.32008364 13.5625 4.3125 C14.7690625 3.6628125 14.7690625 3.6628125 16 3 C18.76646037 1.53540334 19.78452708 1 23 1 C23 1.66 23 2.32 23 3 C21.02 3.33 19.04 3.66 17 4 C17 4.66 17 5.32 17 6 C9.25 7.125 9.25 7.125 7 6 C7 5.34 7 4.68 7 4 C4.03 3.505 4.03 3.505 1 3 C1 12.57 1 22.14 1 32 C0.67 32 0.34 32 0 32 C0 21.44 0 10.88 0 0 Z " fill="#3C511E" transform="translate(285,305)"/>
<path d="M0 0 C1.32 0 2.64 0 4 0 C4 0.66 4 1.32 4 2 C6.32950303 2.62717389 8.6171614 3.10286023 11 3.5 C13.3828386 3.89713977 15.67049697 4.37282611 18 5 C15.8125 6.625 15.8125 6.625 13 8 C10.6875 7.4375 10.6875 7.4375 8 6 C5.36 4.68 2.72 3.36 0 2 C0 12.89 0 23.78 0 35 C-0.33 35 -0.66 35 -1 35 C-1.0246519 30.17619198 -1.04283693 25.35242033 -1.05493164 20.52856445 C-1.05997174 18.88630536 -1.06680378 17.24405077 -1.07543945 15.60180664 C-1.08751926 13.24624521 -1.09323139 10.89074291 -1.09765625 8.53515625 C-1.10281754 7.79660904 -1.10797882 7.05806183 -1.11329651 6.2971344 C-1.1134925 4.53101912 -1.06194719 2.76502854 -1 1 C-0.67 0.67 -0.34 0.34 0 0 Z " fill="#A99745" transform="translate(285,303)"/>
<path d="M0 0 C0.33 0 0.66 0 1 0 C1 9.57 1 19.14 1 29 C-4.625 27.875 -4.625 27.875 -7 25 C-5.68 25 -4.36 25 -3 25 C-3 25.66 -3 26.32 -3 27 C-2.34 27 -1.68 27 -1 27 C-1.00523682 26.21761963 -1.01047363 25.43523926 -1.01586914 24.62915039 C-1.03657106 21.10694167 -1.04963838 17.5847457 -1.0625 14.0625 C-1.07087891 12.83080078 -1.07925781 11.59910156 -1.08789062 10.33007812 C-1.09111328 9.16025391 -1.09433594 7.99042969 -1.09765625 6.78515625 C-1.10289307 5.70113525 -1.10812988 4.61711426 -1.11352539 3.50024414 C-1 1 -1 1 0 0 Z " fill="#415926" transform="translate(308,212)"/>
<path d="M0 0 C0.99 0 1.98 0 3 0 C3 0.99 3 1.98 3 3 C3.66 3 4.32 3 5 3 C5.90210244 5.70630733 6.12839917 7.28336324 6.1328125 10.0625 C6.13474609 10.85487061 6.13667969 11.64724121 6.13867188 12.46362305 C6.13416016 13.30062744 6.12964844 14.13763184 6.125 15 C6.12306641 15.85053955 6.12113281 16.7010791 6.11914062 17.57739258 C6.07682159 23.7577348 5.7722477 29.86338882 5 36 C4.67 36 4.34 36 4 36 C3.98541748 35.15816162 3.97083496 34.31632324 3.95581055 33.44897461 C3.89440846 30.2970731 3.82019269 27.14579539 3.73754883 23.99438477 C3.70449066 22.63577457 3.67640039 21.27703334 3.65356445 19.91821289 C3.57552515 9.53911693 3.57552515 9.53911693 0 0 Z " fill="#FDFBE4" transform="translate(380,169)"/>
<path d="M0 0 C0.33 0 0.66 0 1 0 C1.33 8.25 1.66 16.5 2 25 C4.64 24.34 7.28 23.68 10 23 C9.67 23.99 9.34 24.98 9 26 C8.34 26 7.68 26 7 26 C7 26.66 7 27.32 7 28 C4.69 27.67 2.38 27.34 0 27 C0 18.09 0 9.18 0 0 Z " fill="#B59B41" transform="translate(283,215)"/>
<path d="M0 0 C0 2.64 0 5.28 0 8 C-3.3 8 -6.6 8 -10 8 C-2.28571429 0 -2.28571429 0 0 0 Z " fill="#919190" transform="translate(604,663)"/>
<path d="M0 0 C0.66 0.33 1.32 0.66 2 1 C1.40832031 1.65226563 0.81664062 2.30453125 0.20703125 2.9765625 C-3.95518632 7.58012451 -8.07669156 12.1907832 -12 17 C-12.66 16.67 -13.32 16.34 -14 16 C-12.60770997 14.26797907 -11.21099444 12.53951516 -9.8125 10.8125 C-9.03519531 9.84957031 -8.25789062 8.88664063 -7.45703125 7.89453125 C-5.08191073 5.09649579 -2.62917223 2.5544533 0 0 Z " fill="#D6E5DC" transform="translate(200,151)"/>
<path d="M0 0 C-1.58667578 3.90285767 -4.13350481 6.33520982 -7.125 9.25 C-8.03507812 10.14203125 -8.94515625 11.0340625 -9.8828125 11.953125 C-10.58148438 12.62859375 -11.28015625 13.3040625 -12 14 C-12.66 13.67 -13.32 13.34 -14 13 C-2.80645161 0 -2.80645161 0 0 0 Z " fill="#D0E0D8" transform="translate(278,550)"/>
<path d="M0 0 C4.11196775 6.16795162 4.26793858 13.76565833 4 21 C3.67 21 3.34 21 3 21 C2.86722656 20.21753906 2.73445313 19.43507812 2.59765625 18.62890625 C2.42105469 17.61699219 2.24445313 16.60507813 2.0625 15.5625 C1.88847656 14.55316406 1.71445312 13.54382813 1.53515625 12.50390625 C1.25248903 10.0712562 1.25248903 10.0712562 0 9 C-0.07179964 7.48071962 -0.08392007 5.95832518 -0.0625 4.4375 C-0.05347656 3.61121094 -0.04445313 2.78492188 -0.03515625 1.93359375 C-0.02355469 1.29550781 -0.01195312 0.65742188 0 0 Z " fill="#6C8779" transform="translate(493,208)"/>
<path d="M0 0 C2.42115191 2.42115191 2.60948898 3.64160525 3 7 C2.72057545 8.67654729 2.37668344 10.34259285 2 12 C1.62116985 14.99528372 1.3075345 17.99663119 1 21 C0.67 21 0.34 21 0 21 C0 14.07 0 7.14 0 0 Z " fill="#244A38" transform="translate(438,249)"/>
<path d="M0 0 C0.33 0 0.66 0 1 0 C1.3457886 5.64788053 0.56064053 9.07569129 -2 14 C-2.99 14.495 -2.99 14.495 -4 15 C-3.52396226 12.87429688 -3.04407402 10.74945573 -2.5625 8.625 C-2.29566406 7.44164062 -2.02882813 6.25828125 -1.75390625 5.0390625 C-1 2 -1 2 0 0 Z " fill="#C4D8CE" transform="translate(489,319)"/>
<path d="M0 0 C0 3.77910478 -0.99703962 4.46106101 -3.5 7.1875 C-4.1496875 7.90292969 -4.799375 8.61835937 -5.46875 9.35546875 C-5.9740625 9.89816406 -6.479375 10.44085937 -7 11 C-7.99 10.67 -8.98 10.34 -10 10 C-6.7 6.7 -3.4 3.4 0 0 Z " fill="#D8E7E0" transform="translate(324,598)"/>
<path d="M0 0 C0.66 0.33 1.32 0.66 2 1 C-0.97 3.97 -3.94 6.94 -7 10 C-7.99 9.67 -8.98 9.34 -10 9 C-6.7 6.03 -3.4 3.06 0 0 Z " fill="#D9E7E1" transform="translate(212,141)"/>
<path d="M0 0 C2.97 0 5.94 0 9 0 C6.11964908 2.24027294 3.15133488 4.16172132 0 6 C0 4.02 0 2.04 0 0 Z " fill="#939293" transform="translate(0,0)"/>
<path d="M0 0 C0.99 0.99 1.98 1.98 3 3 C-0.24509304 5.03977277 -3.40608886 6.66511872 -7 8 C-6.02133662 6.85373678 -5.04205413 5.70800212 -4.0625 4.5625 C-3.51722656 3.92441406 -2.97195313 3.28632812 -2.41015625 2.62890625 C-1.63204305 1.73008851 -0.84063472 0.84063472 0 0 Z " fill="#D1E5DB" transform="translate(317,550)"/>
<path d="M0 0 C0.33 0 0.66 0 1 0 C1.56359649 9.58114035 1.56359649 9.58114035 -2 14 C-2.33 14 -2.66 14 -3 14 C-3 12.35 -3 10.7 -3 9 C-2.01 8.67 -1.02 8.34 0 8 C0 5.36 0 2.72 0 0 Z " fill="#BD9A48" transform="translate(382,320)"/>
<path d="M0 0 C2.31 0 4.62 0 7 0 C7 1.65 7 3.3 7 5 C4.11562221 3.70700306 2.12780579 2.34058637 0 0 Z " fill="#E1E2DE" transform="translate(597,0)"/>
<path d="M0 0 C3.93673644 1.31224548 6.22719294 2.91910327 9 6 C8.67 6.66 8.34 7.32 8 8 C6.66372225 6.85760183 5.33104612 5.71098945 4 4.5625 C3.2575 3.92441406 2.515 3.28632812 1.75 2.62890625 C1.1725 2.09136719 0.595 1.55382812 0 1 C0 0.67 0 0.34 0 0 Z " fill="#426151" transform="translate(279,607)"/>
<path d="M0 0 C0.33 1.32 0.66 2.64 1 4 C-0.9375 6.25 -0.9375 6.25 -3 8 C-3.99 7.67 -4.98 7.34 -6 7 C-4.02 4.69 -2.04 2.38 0 0 Z " fill="#375E4B" transform="translate(145,121)"/>
<path d="M0 0 C3.46941546 0.45822468 6.67395049 0.89131683 10 2 C10 2.66 10 3.32 10 4 C8.02 4 6.04 4 4 4 C3.67 3.34 3.34 2.68 3 2 C2.01 1.34 1.02 0.68 0 0 Z " fill="#577A69" transform="translate(262,390)"/>
<path d="M0 0 C0.66 0.33 1.32 0.66 2 1 C0.9024777 3.99324263 0.32317108 4.84610901 -2.625 6.25 C-3.40875 6.4975 -4.1925 6.745 -5 7 C-3.70700306 4.11562221 -2.34058637 2.12780579 0 0 Z " fill="#C2A558" transform="translate(217,166)"/>
<path d="M0 0 C0.66 0.33 1.32 0.66 2 1 C0.35 2.98 -1.3 4.96 -3 7 C-3.99 6.67 -4.98 6.34 -6 6 C-4.02 4.02 -2.04 2.04 0 0 Z " fill="#C1D3C9" transform="translate(200,151)"/>
<path d="M0 0 C-2.25 1.625 -2.25 1.625 -5 3 C-7.3125 2.1875 -7.3125 2.1875 -9 1 C-9 0.67 -9 0.34 -9 0 C-5.62182575 -0.84454356 -3.32534757 -1.10844919 0 0 Z " fill="#A9994A" transform="translate(303,308)"/>
<path d="M0 0 C0.8125 1.6875 0.8125 1.6875 1 4 C-1.4375 6.75 -1.4375 6.75 -4 9 C-2.94124926 5.59687262 -1.99097846 2.98646769 0 0 Z " fill="#C7D9D0" transform="translate(178,178)"/>
</svg>
